<svg width="56" height="19" viewBox="0 0 56 19" fill="none" xmlns="http://www.w3.org/2000/svg">
<circle cx="5" cy="9.5" r="5" fill="#68D391"/>
<path opacity="0.6" d="M22.872 13.644C25.212 13.644 27.192 11.688 27.192 9.372C27.192 7.056 25.212 5.112 22.872 5.112C20.52 5.112 18.54 7.056 18.54 9.372C18.54 11.688 20.52 13.644 22.872 13.644ZM22.872 12.276C21.348 12.276 20.064 10.956 20.064 9.372C20.064 7.8 21.348 6.48 22.872 6.48C24.384 6.48 25.656 7.8 25.656 9.372C25.656 10.956 24.384 12.276 22.872 12.276ZM31.9028 7.152C31.0868 7.152 30.3668 7.548 29.9828 8.124V7.296H28.5188V13.5H29.9828V9.576C30.0788 8.916 30.7148 8.4 31.4828 8.4C32.2508 8.4 32.7908 9 32.7908 9.84V13.5H34.2068V9.552C34.2068 8.148 33.2588 7.152 31.9028 7.152ZM35.7962 13.5H37.2602V5.112H35.7962V13.5ZM39.6222 6.36C40.0782 6.36 40.4502 5.964 40.4502 5.52C40.4502 5.076 40.0782 4.692 39.6222 4.692C39.1542 4.692 38.7822 5.076 38.7822 5.52C38.7822 5.964 39.1542 6.36 39.6222 6.36ZM38.8782 13.5H40.3422V7.296H38.8782V13.5ZM45.3443 7.152C44.5283 7.152 43.8083 7.548 43.4243 8.124V7.296H41.9603V13.5H43.4243V9.576C43.5203 8.916 44.1562 8.4 44.9243 8.4C45.6923 8.4 46.2323 9 46.2323 9.84V13.5H47.6483V9.552C47.6483 8.148 46.7003 7.152 45.3443 7.152ZM52.1296 12.348C51.2416 12.348 50.5936 11.748 50.4136 10.896H55.0936C55.0936 8.604 53.9776 7.152 52.0576 7.152C50.2936 7.152 48.9016 8.52 48.9016 10.38C48.9016 12.288 50.3656 13.644 52.1416 13.644C53.0416 13.644 54.1216 13.26 54.6616 12.684L53.7376 11.724C53.3896 12.084 52.7056 12.348 52.1296 12.348ZM52.1176 8.448C52.9936 8.448 53.5216 9 53.6896 9.78H50.4256C50.6416 8.964 51.3016 8.448 52.1176 8.448Z" fill="black"/>
</svg>
